<?xml version="1.0" encoding="UTF-8" standalone="no"?>
<svg
   viewBox="0 0 749.2 857.2"
   width="96"
   height="96"
   style="enable-background:new 0 0 749.2 857.2"
   xml:space="preserve"
   version="1.1"
   id="svg2669"
   sodipodi:docname="home.svg"
   inkscape:version="1.2 (dc2aedaf03, 2022-05-15)"
   xmlns:inkscape="http://www.inkscape.org/namespaces/inkscape"
   xmlns:sodipodi="http://sodipodi.sourceforge.net/DTD/sodipodi-0.dtd"
   xmlns="http://www.w3.org/2000/svg"
   xmlns:svg="http://www.w3.org/2000/svg"><defs
     id="defs2673" /><sodipodi:namedview
     id="namedview2671"
     pagecolor="#ffffff"
     bordercolor="#666666"
     borderopacity="1.0"
     inkscape:showpageshadow="2"
     inkscape:pageopacity="0.0"
     inkscape:pagecheckerboard="0"
     inkscape:deskcolor="#d1d1d1"
     showgrid="false"
     inkscape:zoom="4.9166667"
     inkscape:cx="94.169492"
     inkscape:cy="76.271186"
     inkscape:current-layer="svg2669" /><path
     id="path2667"
     style="fill:#082a3f;stroke-width:0.999993"
     d="M 27.461206 0 C -0.83109212 18.23835 13.429087 49.82951 31.85603 59.155729 C 86.730974 104.22374 135.38849 156.30121 183.05891 208.75415 C 169.87777 199.00051 177.491 203.64748 89.023625 142.83179 C 64.499122 125.57638 44.843407 154.24323 49.383008 177.31023 C 53.28405 215.11324 75.848315 249.11496 102.71385 274.92067 C 113.94549 286.09492 134.67599 293.21508 117.27607 308.54456 C 90.334677 355.89827 85.710304 416.19792 108.24226 466.18272 C 136.24244 482.28914 120.54389 516.70916 116.35176 540.51106 C 116.31076 573.41163 72.421959 636.31873 48.964453 660.5665 C 127.99696 719.66637 195.32768 794.14348 254.35273 855.7525 C 290.33642 761.10249 308.77788 721.94702 324.84431 621.98971 C 376.49469 597.84752 496.19359 674.27776 537.62705 700.66055 C 567.92727 703.8359 630.74893 662.06073 632.6564 636.9356 C 584.64876 563.27599 549.71969 504.69504 496.64357 434.58184 C 490.75204 405.94925 485.4769 372.01376 458.43302 355.26573 C 425.75794 322.65112 411.80733 273.15821 369.71686 249.70275 C 361.0251 244.21198 339.21992 222.27736 313.56077 214.3 C 208.31563 119.33123 135.78639 71.192497 27.461206 0 z M 367.31017 351.83009 A 63.236168 63.236168 0 0 1 430.54681 415.06673 A 63.236168 63.236168 0 0 1 367.31017 478.30337 A 63.236168 63.236168 0 0 1 304.07354 415.06673 A 63.236168 63.236168 0 0 1 367.31017 351.83009 z M 675.50594 636.30776 C 669.04554 636.66035 662.4544 639.40738 656.09547 644.62654 C 626.25239 669.32015 596.408 694.00923 566.73404 719.09439 C 549.60881 733.58954 547.57564 753.98576 560.12437 774.50057 C 567.75426 787.12207 575.38499 799.75895 583.35415 813.16456 C 581.4887 815.42052 579.11406 818.04109 576.57008 821.04734 C 584.41492 833.10704 592.27589 845.15851 600.14866 857.2 C 654.57979 811.88702 708.65737 767.14439 763.08851 721.83244 C 754.44082 708.78967 746.98388 697.33285 739.35297 685.87161 C 735.62207 688.06403 732.90328 689.51726 729.34254 691.5221 C 720.69485 678.28665 713.06615 666.24422 704.92685 653.9917 C 696.66148 641.75969 686.27224 635.71943 675.50594 636.30776 z " /></svg>
