<svg viewBox="0 0 749.2 857.2" width="96" height="96" style="enable-background:new 0 0 749.2 857.2" xml:space="preserve" xmlns="http://www.w3.org/2000/svg"><style type="text/css" id="SvgjsStyle1002">.st0{fill:#082a3f}@media (prefers-color-scheme:light){:root{filter:none}}@media (prefers-color-scheme:dark){:root{filter:contrast(.47619047619047616) brightness(3.5)}}</style><path style="fill:#082a3f;stroke-width:.999996" d="M121.964 0c-30.406 7.533-24.32 39.098-16.616 55.05 35.282 69.677 52.083 99.085 100.993 172.62-14.645-.741-33.718-.282-128.502-62.97-23.774-16.728-42.828 11.061-38.428 33.422 3.782 36.646 25.656 69.607 51.699 94.623 10.888 10.832 30.983 17.734 14.116 32.594-26.117 45.905-30.6 104.358-8.757 152.813 27.143 15.613 11.925 48.98 7.861 72.053-.04 31.894-42.585 92.875-65.324 116.38 76.613 57.291 141.883 129.489 199.1 189.212 34.883-91.753 52.76-129.71 68.335-226.607 50.069-23.403 166.104 50.687 206.269 76.262 29.373 3.079 90.271-37.418 92.12-61.774-46.538-71.405-80.398-128.192-131.85-196.16-5.71-27.756-10.824-60.652-37.04-76.888-31.675-31.616-45.198-79.594-86-102.331-8.426-5.323-29.564-26.586-54.438-34.32C213.666 128.226 195.187 102.119 121.964 0Zm225.643 367.3c33.855 0 61.3 27.445 61.3 61.3 0 33.856-27.445 61.302-61.3 61.302-33.856 0-61.302-27.446-61.301-61.301 0-33.856 27.445-61.301 61.3-61.301zm298.761 275.77c-6.263.341-12.652 3.004-18.816 8.064-28.93 23.937-57.86 47.87-86.626 72.188-16.601 14.051-18.572 33.823-6.407 53.71 7.396 12.235 14.793 24.485 22.518 37.48-1.808 2.187-4.11 4.728-6.576 7.642a18057.83 18057.83 0 0 0 22.857 35.046c52.765-43.926 105.187-87.299 157.952-131.224-8.383-12.643-15.612-23.75-23.01-34.86-3.616 2.125-6.252 3.534-9.703 5.478-8.383-12.83-15.778-24.504-23.669-36.382-8.012-11.857-18.083-17.713-28.52-17.143z"/></svg>