<svg viewBox="0 0 749.2 857.2" width="96" height="96" style="enable-background:new 0 0 749.2 857.2" xml:space="preserve" xmlns="http://www.w3.org/2000/svg"><path style="fill:#082a3f;stroke-width:.999993" d="M36.222 0C8.619 17.794 22.53 48.613 40.508 57.712c53.538 43.97 101.026 94.788 147.535 145.963-12.86-9.516-5.443-4.993-91.755-64.327-23.927-16.835-43.097 11.14-38.668 33.645 3.806 36.882 25.81 70.048 52.021 95.225 10.958 10.902 31.196 17.857 14.22 32.813-26.285 46.2-30.8 105.02-8.817 153.787 27.318 15.714 12.004 49.308 7.914 72.53-.04 32.099-42.858 109.82-65.744 133.477 77.107 57.66 142.782 130.322 200.369 190.43 35.107-92.344 53.105-146.899 68.78-244.421 50.392-23.554 181.7 64.642 222.124 90.382 29.562 3.098 90.852-37.663 92.713-62.176-46.838-71.865-95.445-142.643-147.228-211.048-5.748-27.935-10.892-61.05-37.277-77.39-31.879-31.82-45.485-80.092-86.55-102.976-8.48-5.357-29.756-26.765-54.79-34.548C212.674 116.423 141.907 69.458 36.221 0Zm368.127 354.01c8.763-1.827 18.001-1.215 26.869 2.674 32.92 12.39 46.661 58.6 20.454 84.383-25.672 32.104-85.99 14.674-90.31-26.38-5.287-27.658 16.698-55.196 42.987-60.677zm282.295 287.68c-6.303.344-12.733 3.02-18.937 8.112-29.116 24.092-58.233 48.182-87.184 72.656-16.708 14.142-18.693 34.048-6.45 54.063 7.444 12.314 14.883 24.631 22.658 37.71-1.82 2.201-4.131 4.765-6.613 7.698A18168.643 18168.643 0 0 0 613.12 857.2c53.105-44.209 105.868-87.859 158.973-132.067-8.437-12.725-15.72-23.908-23.165-35.09-3.64 2.139-6.283 3.554-9.757 5.51-8.437-12.913-15.875-24.654-23.816-36.608-8.064-11.934-18.207-17.83-28.711-17.256z"/></svg>