<svg xmlns="http://www.w3.org/2000/svg" width="48" height="48"><svg version="1.1" id="SvgjsSvg1006" x="0" y="0" viewBox="0 0 48 48" xml:space="preserve" width="48" height="48" xmlns="http://www.w3.org/2000/svg" xmlns:svg="http://www.w3.org/2000/svg"><style type="text/css" id="SvgjsStyle1002">.st0{fill:#082a3f}@media (prefers-color-scheme:light){:root{filter:none}}@media (prefers-color-scheme:dark){:root{filter:contrast(.47619047619047616) brightness(3.5)}}</style><path class="st0" d="M45.792 37.539c.233-.122.41-.211.655-.344.5.643.987 1.287 1.553 2.019-3.56 2.706-7.1 5.38-10.66 8.086-.533-.698-1.02-1.342-1.542-2.03.166-.177.321-.332.443-.465-.52-.755-1.02-1.465-1.52-2.175-.82-1.153-.687-2.33.433-3.194A738.039 738.039 0 0 1 41 34.987c1.11-.832 2.33-.654 3.195.444.533.688 1.032 1.364 1.597 2.108z" id="SvgjsPath1001" style="stroke-width:1"/><path class="st0" d="M39.148 33.723c-.5-.854-1.076-1.664-1.63-2.485-.433-.644-.877-1.276-1.31-1.92-.3-.443-.599-.887-.91-1.33-.488-.721-.987-1.442-1.475-2.164a21.96 21.96 0 0 0-.588-.82c-.388-.544-.787-1.099-1.187-1.642-.288-.4-.577-.81-.876-1.21a134.26 134.26 0 0 0-.998-1.308c-.067-.1-.145-.189-.211-.289a16.74 16.74 0 0 1-.289-1.286c-.233-1.265-.643-2.452-1.664-3.229-1.12-.854-1.774-1.996-2.44-3.15-1.364-2.33-3.428-3.971-5.757-4.792l-.067-.067c-.244-.3-.488-.599-.743-.887-.3-.333-.621-.655-.932-.987l-.055-.056c-.278-.322-.533-.665-.821-.976-.388-.41-.788-.81-1.187-1.21l-.056-.055c-.321-.366-.62-.754-.954-1.109-.366-.388-.787-.732-1.142-1.154-.488-.576-1.12-1.01-1.609-1.597-.421-.5-.954-.887-1.397-1.376-.566-.632-1.22-1.198-1.842-1.797-.92-.898-1.93-1.708-2.895-2.551-.277-.244-.544-.5-.821-.743-1.143-.999-2.274-1.997-3.417-2.995a1.179 1.179 0 0 0-.122-.1c-.41-.3-.843-.588-1.242-.899-.444-.332-.865-.699-1.287-1.042-.011-.012-.022-.012-.033-.023-.455-.332-.91-.665-1.353-1.01-.045-.032-.078-.066-.122-.099-.344-.233-.688-.455-1.021-.699-.355-.255-.688-.543-1.043-.81-.033-.022-.055-.044-.089-.066-.288-.189-.587-.377-.876-.577-.41-.277-.82-.577-1.231-.854-.255-.178-.533-.322-.788-.5-.366-.232-.72-.487-1.12-.754-.355.455-.688.888-1.032 1.332.078.077.122.155.2.2.21.155.432.299.632.465.355.277.666.6 1.054.854.521.344.998.777 1.464 1.198 1.165 1.043 2.308 2.097 3.461 3.14.233.21.422.466.588.732.045.066.078.133.133.177.7.677 1.398 1.354 2.086 2.03.3.3.599.61.876.932.277.322.544.655.821.976.31.344.632.677.954 1.01a.195.195 0 0 1 .044.055c.222.278.433.555.655.821.322.388.654.754.965 1.143.31.377.577.776.887 1.153.433.533.888 1.043 1.32 1.587.466.576.91 1.153 1.365 1.73.122.155.255.31.366.477.277.4.544.81.81 1.21.543.787 1.098 1.574 1.642 2.373.044.056.033.144.055.266-.189-.155-.333-.288-.488-.399-.277-.189-.566-.366-.843-.566-.289-.2-.555-.432-.843-.632a14.784 14.784 0 0 0-.677-.477c-.3-.2-.61-.388-.898-.599-.289-.2-.555-.422-.844-.632-.21-.156-.432-.3-.643-.455-.288-.2-.588-.377-.876-.577-.222-.155-.444-.31-.688-.477-.466.51-.899.976-1.32 1.464-.056.056-.078.156-.078.244a7.612 7.612 0 0 0 .244 2.064c.267.998.666 1.952 1.243 2.806.11.167.233.322.355.477.31.388.61.799.954 1.154.421.432.887.82 1.342 1.231.078.067.155.133.233.189.122.077.244.155.355.233-1.997 2.85-2.585 6.622-1.287 10.072.222.6.521.888 1.11.92a20.102 20.102 0 0 0-.322 1.964c-.122 1.054-.133 2.13-.189 3.195-.011.233 0 .488-.055.71-.111.466-.178.932-.333 1.387-.289.832-.51 1.686-.766 2.529-.022.055-.033.122-.055.177-.455.821-.899 1.642-1.353 2.452-.145.244-.333.466-.488.71-.2.3-.378.632-.622.887-.355.389-.687.788-1.065 1.154l12.746 11.625c0-.01.011-.022.011-.033.233-.577.422-1.176.633-1.775.11-.321.21-.643.321-.965.233-.665.51-1.309.71-1.974.732-2.463 1.42-4.937 2.03-7.444.011-.044.034-.1.034-.144.11-.632.21-1.265.332-1.886.244-1.298.5-2.584.766-3.871.022-.133.077-.255.133-.433.654.2 1.298.4 1.93.6a.687.687 0 0 0 .266.088c.222.066.444.144.666.21.532.178 1.065.389 1.575.6a52.22 52.22 0 0 1 2.307.998c.921.444 1.842.91 2.752 1.376.465.244.91.51 1.364.776.366.21.743.41 1.098.632.644.4 1.287.821 1.975 1.132 1.187.599 3.405-1.686 4.648-2.707.499-.344 1.076-.743.854-1.253zM27.323 21.62a3.247 3.247 0 0 1-4.593.211 3.247 3.247 0 0 1-.21-4.593 3.247 3.247 0 0 1 4.592-.21c1.32 1.209 1.42 3.272.21 4.592z" id="SvgjsPath1000" style="stroke-width:1"/></svg></svg>